<?xml version="1.0" standalone="no"?>
<!DOCTYPE svg PUBLIC "-//W3C//DTD SVG 20010904//EN"
 "http://www.w3.org/TR/2001/REC-SVG-20010904/DTD/svg10.dtd">
<svg version="1.0" xmlns="http://www.w3.org/2000/svg"
 width="128.000000pt" height="128.000000pt" viewBox="0 0 128.000000 128.000000"
 preserveAspectRatio="xMidYMid meet">
<metadata>
Created by potrace 1.11, written by Peter Selinger 2001-2013
</metadata>
<g transform="translate(0.000000,128.000000) scale(0.100000,-0.100000)"
fill="#000000" stroke="none">
<path d="M22 1258 c-27 -27 -1 -83 35 -77 38 6 39 3 38 -154 0 -143 -1 -154
-23 -181 -20 -26 -22 -40 -22 -142 0 -110 1 -113 26 -133 15 -12 33 -21 41
-21 11 0 13 -10 9 -42 -4 -24 -8 -66 -10 -95 -16 -180 -19 -209 -22 -214 -2
-4 29 -21 69 -39 39 -18 129 -59 199 -92 83 -39 137 -58 155 -56 28 3 28 3 25
73 -11 258 -152 476 -352 541 l-50 16 0 269 c0 249 1 269 18 270 25 1 75 6 89
7 21 3 35 40 23 62 -10 18 -21 20 -123 20 -75 0 -117 -4 -125 -12z"/>
<path d="M510 1251 c-179 -51 -291 -173 -316 -343 -5 -35 -4 -38 18 -39 25 0
817 0 909 1 l56 0 -8 43 c-24 129 -98 237 -197 288 -15 8 -29 16 -32 20 -3 3
-36 14 -75 26 -88 26 -270 28 -355 4z m398 -191 c18 0 47 7 63 16 30 15 31 15
24 -8 -17 -54 -64 -77 -121 -58 -34 12 -54 35 -54 64 0 13 3 13 28 0 15 -7 42
-14 60 -14z"/>
<path d="M189 776 c-5 -7 -5 -37 0 -40 8 -5 47 -14 96 -21 17 -3 41 -7 55 -10
14 -3 40 -8 59 -11 18 -3 43 -7 54 -10 12 -2 39 -6 62 -9 83 -12 75 22 75
-341 l0 -324 90 0 90 0 0 324 0 323 63 13 c34 7 73 14 87 16 32 6 190 35 210
39 8 2 23 4 33 4 13 1 17 7 15 24 l-3 22 -492 1 c-271 1 -493 1 -494 0z"/>
<path d="M1147 616 c-117 -49 -193 -121 -252 -241 -47 -95 -78 -228 -77 -335
0 -45 40 -39 173 23 63 29 151 71 196 92 70 32 82 41 79 59 -2 12 -7 57 -11
101 -4 44 -8 89 -10 101 -2 11 -6 52 -9 90 -9 98 -16 134 -24 134 -4 0 -33
-11 -65 -24z"/>
</g>
</svg>
